# xmcd
#
# Track frame offsets:
#	150
#	19650
#	37500
#	47851
#
# Disc length: 858 seconds
#
# Revision: 1
# Processed by: cddbd v1.5PL3 Copyright (c) Steve Scherf et al.
# Submitted via: CDex 1.50Beta5
#
DISCID=22035804
DTITLE=Hermann H. and The Pacemakers - 夜には星と音楽を
DYEAR=2001
DGENRE=Rock
TTITLE0=NEWLY DISCOVERED CRATER,A
TTITLE1=夜には星と音楽を
TTITLE2=TEENAGE TAMBOURINE
TTITLE3=O.H.P
EXTD=
EXTT0=
EXTT1=
EXTT2=
EXTT3=
PLAYORDER=
